# xmcd
#
# Track frame offsets:
#	150
#	18573
#	35417
#	56005
#	68679
#	81928
#	102663
#	118423
#	134707
#	150035
#	171714
#	189278
#	205846
#	222686
#	246795
#	266612
#	289318
#	307317
#	321872
#	337989
#
# Disc length: 4798 seconds
#
# Revision: 0
# Processed by: cddbd v1.5.2PL0 Copyright (c) Steve Scherf et al.
# Submitted via: EasyCDDAExtractor 2010.4.0.0
#
DISCID=3e12bc14
DTITLE=Vince Gill
DYEAR=1900
DGENRE=
TTITLE0=Victim Of Life's Circumstances
TTITLE1=Oh! Carolina
TTITLE2=I've Been Hearing Things About You
TTITLE3=Turn Me Loose
TTITLE4=The Radio
TTITLE5=Livin' The Way I Do
TTITLE6=Midnight Train
TTITLE7=True Love
TTITLE8=Ain't It Always That Way
TTITLE9=Oklahoma Borderline
TTITLE10=With You
TTITLE11=The Way Back Home
TTITLE12=Losing Your Love
TTITLE13=Everybody's Sweetheart
TTITLE14=Don't Say That You Love Me
TTITLE15=Something's Missing
TTITLE16=Colder Than Winter
TTITLE17=Cinderella
TTITLE18=Let's Do Something
TTITLE19=I Never Knew Lonely
EXTD=
EXTT0=
EXTT1=
EXTT2=
EXTT3=
EXTT4=
EXTT5=
EXTT6=
EXTT7=
EXTT8=
EXTT9=
EXTT10=
EXTT11=
EXTT12=
EXTT13=
EXTT14=
EXTT15=
EXTT16=
EXTT17=
EXTT18=
EXTT19=
PLAYORDER=
